<mxfile host="app.diagrams.net" modified="2021-09-29T09:06:10.263Z" agent="5.0 (Macintosh; Intel Mac OS X 10_15_7) AppleWebKit/537.36 (KHTML, like Gecko) Chrome/93.0.4577.82 Safari/537.36" etag="I6iHtnuu0rZP5IZfL-uX" version="15.3.7" type="github">
  <diagram id="kgpKYQtTHZ0yAKxKKP6v" name="Page-1">
    <mxGraphModel dx="1426" dy="794" grid="1" gridSize="10" guides="1" tooltips="1" connect="1" arrows="1" fold="1" page="1" pageScale="1" pageWidth="850" pageHeight="1100" math="0" shadow="0">
      <root>
        <mxCell id="0" />
        <mxCell id="1" parent="0" />
        <mxCell id="p-mhhsM2qsI7QoDZDvqL-28" value="&lt;font style=&quot;font-size: 24px&quot;&gt;Server&lt;/font&gt;" style="shape=umlLifeline;perimeter=lifelinePerimeter;whiteSpace=wrap;html=1;container=1;collapsible=0;recursiveResize=0;outlineConnect=0;size=80;" vertex="1" parent="1">
          <mxGeometry x="210" y="120" width="150" height="490" as="geometry" />
        </mxCell>
        <mxCell id="p-mhhsM2qsI7QoDZDvqL-41" value="" style="html=1;points=[];perimeter=orthogonalPerimeter;" vertex="1" parent="p-mhhsM2qsI7QoDZDvqL-28">
          <mxGeometry x="70" y="160" width="10" height="210" as="geometry" />
        </mxCell>
        <mxCell id="p-mhhsM2qsI7QoDZDvqL-67" value="消息投递" style="html=1;verticalAlign=bottom;startArrow=circle;startFill=1;endArrow=open;startSize=6;endSize=8;strokeWidth=2;" edge="1" parent="p-mhhsM2qsI7QoDZDvqL-28" target="p-mhhsM2qsI7QoDZDvqL-35">
          <mxGeometry width="80" relative="1" as="geometry">
            <mxPoint x="80" y="340" as="sourcePoint" />
            <mxPoint x="160" y="340" as="targetPoint" />
            <Array as="points">
              <mxPoint x="80" y="350" />
            </Array>
          </mxGeometry>
        </mxCell>
        <mxCell id="p-mhhsM2qsI7QoDZDvqL-34" value="&lt;font style=&quot;font-size: 24px&quot;&gt;SubServer&lt;/font&gt;" style="shape=umlLifeline;perimeter=lifelinePerimeter;whiteSpace=wrap;html=1;container=1;collapsible=0;recursiveResize=0;outlineConnect=0;size=80;" vertex="1" parent="1">
          <mxGeometry x="370" y="120" width="160" height="490" as="geometry" />
        </mxCell>
        <mxCell id="p-mhhsM2qsI7QoDZDvqL-61" value="" style="html=1;points=[];perimeter=orthogonalPerimeter;" vertex="1" parent="p-mhhsM2qsI7QoDZDvqL-34">
          <mxGeometry x="75" y="180" width="10" height="60" as="geometry" />
        </mxCell>
        <mxCell id="p-mhhsM2qsI7QoDZDvqL-64" value="" style="html=1;points=[];perimeter=orthogonalPerimeter;" vertex="1" parent="p-mhhsM2qsI7QoDZDvqL-34">
          <mxGeometry x="75" y="260" width="10" height="60" as="geometry" />
        </mxCell>
        <mxCell id="p-mhhsM2qsI7QoDZDvqL-65" value="实时处理B" style="html=1;verticalAlign=bottom;endArrow=block;entryX=0;entryY=0;strokeWidth=2;" edge="1" parent="p-mhhsM2qsI7QoDZDvqL-34" target="p-mhhsM2qsI7QoDZDvqL-64">
          <mxGeometry x="0.0654" relative="1" as="geometry">
            <mxPoint x="-85.5" y="260" as="sourcePoint" />
            <Array as="points">
              <mxPoint x="-30" y="260" />
            </Array>
            <mxPoint x="1" as="offset" />
          </mxGeometry>
        </mxCell>
        <mxCell id="p-mhhsM2qsI7QoDZDvqL-66" value="返回处理结果" style="html=1;verticalAlign=bottom;endArrow=open;dashed=1;endSize=8;exitX=0;exitY=0.95;strokeWidth=2;" edge="1" parent="p-mhhsM2qsI7QoDZDvqL-34" source="p-mhhsM2qsI7QoDZDvqL-64">
          <mxGeometry relative="1" as="geometry">
            <mxPoint x="-80" y="317" as="targetPoint" />
            <Array as="points">
              <mxPoint x="-70" y="317" />
            </Array>
          </mxGeometry>
        </mxCell>
        <mxCell id="p-mhhsM2qsI7QoDZDvqL-35" value="&lt;font style=&quot;font-size: 24px&quot;&gt;DataBus&lt;/font&gt;" style="shape=umlLifeline;perimeter=lifelinePerimeter;whiteSpace=wrap;html=1;container=1;collapsible=0;recursiveResize=0;outlineConnect=0;size=80;" vertex="1" parent="1">
          <mxGeometry x="550" y="120" width="150" height="490" as="geometry" />
        </mxCell>
        <mxCell id="p-mhhsM2qsI7QoDZDvqL-68" value="" style="html=1;points=[];perimeter=orthogonalPerimeter;" vertex="1" parent="p-mhhsM2qsI7QoDZDvqL-35">
          <mxGeometry x="70" y="350" width="10" height="80" as="geometry" />
        </mxCell>
        <mxCell id="p-mhhsM2qsI7QoDZDvqL-36" value="&lt;font style=&quot;font-size: 24px&quot;&gt;Biz-Job&lt;/font&gt;" style="shape=umlLifeline;perimeter=lifelinePerimeter;whiteSpace=wrap;html=1;container=1;collapsible=0;recursiveResize=0;outlineConnect=0;size=80;" vertex="1" parent="1">
          <mxGeometry x="730" y="120" width="100" height="490" as="geometry" />
        </mxCell>
        <mxCell id="p-mhhsM2qsI7QoDZDvqL-69" value="" style="html=1;points=[];perimeter=orthogonalPerimeter;" vertex="1" parent="p-mhhsM2qsI7QoDZDvqL-36">
          <mxGeometry x="45" y="377.5" width="10" height="55" as="geometry" />
        </mxCell>
        <mxCell id="p-mhhsM2qsI7QoDZDvqL-37" value="&lt;font style=&quot;font-size: 24px&quot;&gt;client&amp;nbsp;&lt;/font&gt;" style="shape=umlLifeline;participant=umlControl;perimeter=lifelinePerimeter;whiteSpace=wrap;html=1;container=1;collapsible=0;recursiveResize=0;verticalAlign=top;spacingTop=36;outlineConnect=0;size=90;" vertex="1" parent="1">
          <mxGeometry x="40" y="110" width="150" height="500" as="geometry" />
        </mxCell>
        <mxCell id="p-mhhsM2qsI7QoDZDvqL-40" value="随机时延" style="html=1;points=[];perimeter=orthogonalPerimeter;" vertex="1" parent="p-mhhsM2qsI7QoDZDvqL-37">
          <mxGeometry x="70" y="120" width="10" height="50" as="geometry" />
        </mxCell>
        <mxCell id="p-mhhsM2qsI7QoDZDvqL-51" style="edgeStyle=orthogonalEdgeStyle;rounded=0;orthogonalLoop=1;jettySize=auto;html=1;strokeWidth=2;" edge="1" parent="p-mhhsM2qsI7QoDZDvqL-37" source="p-mhhsM2qsI7QoDZDvqL-48" target="p-mhhsM2qsI7QoDZDvqL-37">
          <mxGeometry relative="1" as="geometry">
            <Array as="points">
              <mxPoint x="75" y="370" />
              <mxPoint x="75" y="370" />
            </Array>
          </mxGeometry>
        </mxCell>
        <mxCell id="p-mhhsM2qsI7QoDZDvqL-48" value="指定时延/随机时延" style="html=1;points=[];perimeter=orthogonalPerimeter;" vertex="1" parent="p-mhhsM2qsI7QoDZDvqL-37">
          <mxGeometry x="70" y="370" width="10" height="90" as="geometry" />
        </mxCell>
        <mxCell id="p-mhhsM2qsI7QoDZDvqL-59" value="" style="shape=requiredInterface;html=1;verticalLabelPosition=bottom;sketch=0;rotation=-180;" vertex="1" parent="p-mhhsM2qsI7QoDZDvqL-37">
          <mxGeometry y="172.79000000000002" width="73.79" height="287.21" as="geometry" />
        </mxCell>
        <mxCell id="p-mhhsM2qsI7QoDZDvqL-42" value="收集数据并上报" style="html=1;verticalAlign=bottom;endArrow=block;entryX=0;entryY=0;exitX=0.4;exitY=1.02;exitDx=0;exitDy=0;exitPerimeter=0;" edge="1" target="p-mhhsM2qsI7QoDZDvqL-41" parent="1" source="p-mhhsM2qsI7QoDZDvqL-40">
          <mxGeometry relative="1" as="geometry">
            <mxPoint x="210" y="280" as="sourcePoint" />
          </mxGeometry>
        </mxCell>
        <mxCell id="p-mhhsM2qsI7QoDZDvqL-43" value="返回处理结果" style="html=1;verticalAlign=bottom;endArrow=open;dashed=1;endSize=8;exitX=0;exitY=0.95;" edge="1" source="p-mhhsM2qsI7QoDZDvqL-41" parent="1" target="p-mhhsM2qsI7QoDZDvqL-37">
          <mxGeometry relative="1" as="geometry">
            <mxPoint x="210" y="356" as="targetPoint" />
          </mxGeometry>
        </mxCell>
        <mxCell id="p-mhhsM2qsI7QoDZDvqL-62" value="实时处理A" style="html=1;verticalAlign=bottom;endArrow=block;entryX=0;entryY=0;strokeWidth=2;" edge="1" target="p-mhhsM2qsI7QoDZDvqL-61" parent="1" source="p-mhhsM2qsI7QoDZDvqL-28">
          <mxGeometry x="0.0654" relative="1" as="geometry">
            <mxPoint x="370" y="300" as="sourcePoint" />
            <Array as="points">
              <mxPoint x="340" y="300" />
            </Array>
            <mxPoint x="1" as="offset" />
          </mxGeometry>
        </mxCell>
        <mxCell id="p-mhhsM2qsI7QoDZDvqL-63" value="返回处理结果" style="html=1;verticalAlign=bottom;endArrow=open;dashed=1;endSize=8;exitX=0;exitY=0.95;strokeWidth=2;" edge="1" source="p-mhhsM2qsI7QoDZDvqL-61" parent="1">
          <mxGeometry relative="1" as="geometry">
            <mxPoint x="290" y="357" as="targetPoint" />
            <Array as="points">
              <mxPoint x="300" y="357" />
            </Array>
          </mxGeometry>
        </mxCell>
        <mxCell id="p-mhhsM2qsI7QoDZDvqL-70" value="订阅数据消费" style="html=1;verticalAlign=bottom;startArrow=circle;startFill=1;endArrow=open;startSize=6;endSize=8;strokeWidth=2;exitX=0;exitY=0.375;exitDx=0;exitDy=0;exitPerimeter=0;" edge="1" parent="1" source="p-mhhsM2qsI7QoDZDvqL-68" target="p-mhhsM2qsI7QoDZDvqL-36">
          <mxGeometry width="80" relative="1" as="geometry">
            <mxPoint x="630" y="500" as="sourcePoint" />
            <mxPoint x="710" y="500" as="targetPoint" />
            <Array as="points">
              <mxPoint x="640" y="500" />
            </Array>
          </mxGeometry>
        </mxCell>
        <mxCell id="p-mhhsM2qsI7QoDZDvqL-71" value="服务端" style="shape=umlFrame;whiteSpace=wrap;html=1;strokeWidth=2;" vertex="1" parent="1">
          <mxGeometry x="200" y="70" width="340" height="550" as="geometry" />
        </mxCell>
      </root>
    </mxGraphModel>
  </diagram>
</mxfile>
